<svg width="236" height="20" viewBox="0 0 236 20" fill="none" xmlns="http://www.w3.org/2000/svg">
<path d="M149.547 19.4479C147.188 19.4479 145.392 18.8141 144.16 17.5466C142.945 16.279 142.294 14.5272 142.206 12.2914C142.188 11.816 142.179 11.0414 142.179 9.96746C142.179 8.87593 142.188 8.08369 142.206 7.59074C142.294 5.37247 142.954 3.62954 144.186 2.36196C145.419 1.07677 147.206 0.434174 149.547 0.434174C151.114 0.434174 152.443 0.715859 153.535 1.27923C154.626 1.825 155.454 2.54681 156.017 3.44469C156.58 4.34256 156.888 5.30205 156.941 6.32316V6.37597C156.941 6.51682 156.88 6.64005 156.756 6.74569C156.651 6.83371 156.528 6.87773 156.387 6.87773H154.934C154.582 6.87773 154.362 6.67527 154.274 6.27034C153.975 4.94994 153.438 4.02566 152.663 3.4975C151.889 2.95174 150.85 2.67885 149.547 2.67885C146.519 2.67885 144.952 4.36016 144.846 7.72278C144.829 8.19813 144.82 8.92875 144.82 9.91465C144.82 10.9005 144.829 11.6488 144.846 12.1593C144.952 15.5219 146.519 17.2033 149.547 17.2033C150.85 17.2033 151.889 16.9392 152.663 16.411C153.455 15.8653 153.992 14.9322 154.274 13.6118C154.327 13.3829 154.406 13.2245 154.512 13.1364C154.617 13.0484 154.758 13.0044 154.934 13.0044H156.387C156.545 13.0044 156.677 13.0572 156.783 13.1628C156.906 13.2509 156.959 13.3741 156.941 13.5325C156.888 14.5713 156.58 15.5396 156.017 16.4374C155.454 17.3353 154.626 18.0659 153.535 18.6293C152.443 19.1751 151.114 19.4479 149.547 19.4479Z" fill="#979797"/>
<path d="M162.778 19.4479C161.915 19.4479 161.114 19.2719 160.375 18.9198C159.635 18.5677 159.046 18.0923 158.605 17.4937C158.183 16.8776 157.972 16.1998 157.972 15.4603C157.972 14.2984 158.447 13.3477 159.398 12.6083C160.366 11.8512 161.669 11.3583 163.306 11.1294L167.241 10.5748V9.80902C167.241 8.01327 166.211 7.1154 164.151 7.1154C163.376 7.1154 162.743 7.28265 162.25 7.61715C161.757 7.93405 161.387 8.31256 161.141 8.7527C161.088 8.91114 161.017 9.02558 160.929 9.096C160.859 9.16642 160.753 9.20163 160.612 9.20163H159.477C159.318 9.20163 159.178 9.14882 159.054 9.04318C158.949 8.91995 158.896 8.7791 158.896 8.62066C158.913 8.19813 159.107 7.72278 159.477 7.19462C159.864 6.64886 160.454 6.18232 161.246 5.795C162.038 5.39008 163.016 5.18761 164.177 5.18761C166.149 5.18761 167.567 5.65416 168.429 6.58724C169.292 7.50272 169.723 8.64706 169.723 10.0203V18.5765C169.723 18.7525 169.662 18.9022 169.538 19.0254C169.433 19.131 169.292 19.1839 169.116 19.1839H167.901C167.725 19.1839 167.575 19.131 167.452 19.0254C167.346 18.9022 167.294 18.7525 167.294 18.5765V17.4409C166.906 18.0043 166.343 18.4796 165.604 18.867C164.864 19.2543 163.922 19.4479 162.778 19.4479ZM163.332 17.4673C164.477 17.4673 165.41 17.0976 166.132 16.3582C166.871 15.6012 167.241 14.5184 167.241 13.11V12.3706L164.177 12.8195C162.927 12.9956 161.986 13.2949 161.352 13.7174C160.718 14.1223 160.401 14.6417 160.401 15.2755C160.401 15.9797 160.692 16.5255 161.273 16.9128C161.854 17.2825 162.54 17.4673 163.332 17.4673Z" fill="#979797"/>
<path d="M172.965 19.1839C172.789 19.1839 172.639 19.131 172.516 19.0254C172.41 18.9022 172.358 18.7525 172.358 18.5765V1.04156C172.358 0.865505 172.41 0.724662 172.516 0.61903C172.639 0.495793 172.789 0.434174 172.965 0.434174H174.206C174.382 0.434174 174.523 0.495793 174.629 0.61903C174.752 0.724662 174.814 0.865505 174.814 1.04156V18.5765C174.814 18.7525 174.752 18.9022 174.629 19.0254C174.523 19.131 174.382 19.1839 174.206 19.1839H172.965Z" fill="#979797"/>
<path d="M183.11 19.4479C181.226 19.4479 179.747 18.9198 178.673 17.8635C177.617 16.7895 177.054 15.2931 176.983 13.3741L176.957 12.3178L176.983 11.2615C177.054 9.34247 177.617 7.85482 178.673 6.7985C179.747 5.72458 181.226 5.18761 183.11 5.18761C184.378 5.18761 185.451 5.41648 186.332 5.87422C187.212 6.33196 187.863 6.89533 188.286 7.56433C188.726 8.23334 188.964 8.90234 188.999 9.57134C189.017 9.7474 188.964 9.88824 188.84 9.99387C188.717 10.0995 188.568 10.1523 188.392 10.1523H187.124C186.948 10.1523 186.816 10.1171 186.728 10.0467C186.64 9.97626 186.552 9.83542 186.464 9.62416C186.164 8.7791 185.742 8.18052 185.196 7.82842C184.65 7.4587 183.964 7.27385 183.136 7.27385C182.045 7.27385 181.173 7.61715 180.522 8.30376C179.888 8.97276 179.545 10.0027 179.492 11.3935L179.466 12.3442L179.492 13.2421C179.545 14.6505 179.888 15.6892 180.522 16.3582C181.156 17.0272 182.027 17.3617 183.136 17.3617C183.964 17.3617 184.65 17.1857 185.196 16.8335C185.742 16.4638 186.164 15.8564 186.464 15.0114C186.552 14.8001 186.64 14.6593 186.728 14.5889C186.816 14.5008 186.948 14.4568 187.124 14.4568H188.392C188.568 14.4568 188.717 14.5184 188.84 14.6417C188.964 14.7473 189.017 14.8882 188.999 15.0642C188.964 15.7156 188.726 16.3846 188.286 17.0712C187.863 17.7402 187.212 18.3036 186.332 18.7613C185.469 19.2191 184.395 19.4479 183.11 19.4479Z" fill="#979797"/>
<path d="M196.07 19.4479C194.397 19.4479 193.103 18.911 192.188 17.837C191.272 16.7455 190.815 15.3019 190.815 13.5061V6.05908C190.815 5.88303 190.868 5.74218 190.973 5.63655C191.096 5.51331 191.246 5.45169 191.422 5.45169H192.742C192.919 5.45169 193.059 5.51331 193.165 5.63655C193.288 5.74218 193.35 5.88303 193.35 6.05908V13.3741C193.35 15.9973 194.494 17.3089 196.783 17.3089C197.892 17.3089 198.772 16.9656 199.424 16.279C200.075 15.5748 200.401 14.6065 200.401 13.3741V6.05908C200.401 5.88303 200.454 5.74218 200.559 5.63655C200.682 5.51331 200.832 5.45169 201.008 5.45169H202.329C202.505 5.45169 202.645 5.51331 202.751 5.63655C202.857 5.74218 202.91 5.88303 202.91 6.05908V18.5765C202.91 18.7525 202.857 18.9022 202.751 19.0254C202.645 19.131 202.505 19.1839 202.329 19.1839H201.087C200.911 19.1839 200.762 19.131 200.638 19.0254C200.533 18.9022 200.48 18.7525 200.48 18.5765V17.4145C199.987 18.0835 199.388 18.5941 198.684 18.9462C197.98 19.2807 197.109 19.4479 196.07 19.4479Z" fill="#979797"/>
<path d="M206.278 19.1839C206.102 19.1839 205.953 19.131 205.829 19.0254C205.724 18.9022 205.671 18.7525 205.671 18.5765V1.04156C205.671 0.865505 205.724 0.724662 205.829 0.61903C205.953 0.495793 206.102 0.434174 206.278 0.434174H207.519C207.695 0.434174 207.836 0.495793 207.942 0.61903C208.065 0.724662 208.127 0.865505 208.127 1.04156V18.5765C208.127 18.7525 208.065 18.9022 207.942 19.0254C207.836 19.131 207.695 19.1839 207.519 19.1839H206.278Z" fill="#979797"/>
<path d="M216.001 19.4479C214.328 19.4479 213.034 18.911 212.119 17.837C211.203 16.7455 210.746 15.3019 210.746 13.5061V6.05908C210.746 5.88303 210.798 5.74218 210.904 5.63655C211.027 5.51331 211.177 5.45169 211.353 5.45169H212.673C212.849 5.45169 212.99 5.51331 213.096 5.63655C213.219 5.74218 213.281 5.88303 213.281 6.05908V13.3741C213.281 15.9973 214.425 17.3089 216.714 17.3089C217.823 17.3089 218.703 16.9656 219.355 16.279C220.006 15.5748 220.332 14.6065 220.332 13.3741V6.05908C220.332 5.88303 220.384 5.74218 220.49 5.63655C220.613 5.51331 220.763 5.45169 220.939 5.45169H222.259C222.435 5.45169 222.576 5.51331 222.682 5.63655C222.788 5.74218 222.84 5.88303 222.84 6.05908V18.5765C222.84 18.7525 222.788 18.9022 222.682 19.0254C222.576 19.131 222.435 19.1839 222.259 19.1839H221.018C220.842 19.1839 220.693 19.131 220.569 19.0254C220.464 18.9022 220.411 18.7525 220.411 18.5765V17.4145C219.918 18.0835 219.319 18.5941 218.615 18.9462C217.911 19.2807 217.039 19.4479 216.001 19.4479Z" fill="#979797"/>
<path d="M230.329 19.4479C229.096 19.4479 228.058 19.2543 227.213 18.867C226.385 18.462 225.76 18.0043 225.338 17.4937C224.933 16.9832 224.73 16.5607 224.73 16.2262C224.73 16.0501 224.792 15.9181 224.915 15.83C225.056 15.7244 225.197 15.6716 225.338 15.6716H226.526C226.702 15.6716 226.86 15.7596 227.001 15.9357C227.424 16.4286 227.882 16.8159 228.375 17.0976C228.867 17.3793 229.528 17.5202 230.355 17.5202C231.271 17.5202 232.01 17.3441 232.573 16.992C233.154 16.6223 233.445 16.1205 233.445 15.4867C233.445 15.0642 233.322 14.7209 233.075 14.4568C232.846 14.1751 232.441 13.9375 231.86 13.7438C231.297 13.5325 230.452 13.3037 229.325 13.0572C227.794 12.7227 226.702 12.2386 226.051 11.6048C225.417 10.971 225.1 10.1523 225.1 9.14881C225.1 8.47981 225.294 7.84602 225.681 7.24744C226.086 6.63125 226.667 6.1383 227.424 5.76859C228.198 5.38127 229.123 5.18761 230.197 5.18761C231.323 5.18761 232.283 5.37247 233.075 5.74218C233.867 6.11189 234.457 6.55203 234.844 7.06258C235.249 7.55553 235.452 7.96926 235.452 8.30376C235.452 8.46221 235.39 8.59425 235.267 8.69988C235.161 8.80551 235.029 8.85833 234.871 8.85833H233.762C233.55 8.85833 233.374 8.7703 233.234 8.59425C232.952 8.25975 232.705 8.00447 232.494 7.82842C232.3 7.63476 232.01 7.46751 231.623 7.32666C231.253 7.18582 230.778 7.1154 230.197 7.1154C229.352 7.1154 228.7 7.30025 228.242 7.66997C227.785 8.02207 227.556 8.48862 227.556 9.06959C227.556 9.4393 227.653 9.7562 227.846 10.0203C228.04 10.2668 228.41 10.4956 228.955 10.7069C229.519 10.9182 230.329 11.1382 231.385 11.3671C233.058 11.7192 234.237 12.2297 234.924 12.8988C235.628 13.5501 235.98 14.3864 235.98 15.4075C235.98 16.1645 235.76 16.8511 235.32 17.4673C234.88 18.0835 234.228 18.5677 233.366 18.9198C232.521 19.2719 231.508 19.4479 230.329 19.4479Z" fill="#979797"/>
<path d="M37.1061 19.1846C36.93 19.1846 36.7804 19.123 36.6571 18.9998C36.5339 18.8765 36.4723 18.7269 36.4723 18.5508V1.35922C36.4723 1.16556 36.5251 1.00711 36.6307 0.883873C36.754 0.760635 36.9124 0.699016 37.1061 0.699016H48.7256C48.9193 0.699016 49.0777 0.760635 49.2009 0.883873C49.3242 1.00711 49.3858 1.16556 49.3858 1.35922V3.10215C49.3858 3.2958 49.3242 3.45425 49.2009 3.57749C49.0777 3.68312 48.9193 3.73594 48.7256 3.73594H40.0374V8.41015H48.1446C48.3383 8.41015 48.4967 8.47177 48.62 8.59501C48.7432 8.70064 48.8048 8.85029 48.8048 9.04395V10.6812C48.8048 10.8749 48.7432 11.0333 48.62 11.1566C48.4967 11.2622 48.3383 11.315 48.1446 11.315H40.0374V16.1477H48.9369C49.1305 16.1477 49.289 16.2093 49.4122 16.3326C49.5355 16.4558 49.5971 16.6142 49.5971 16.8079V18.5508C49.5971 18.7445 49.5355 18.9029 49.4122 19.0262C49.289 19.1318 49.1305 19.1846 48.9369 19.1846H37.1061Z" fill="#565C65"/>
<path d="M52.319 19.1846C52.1429 19.1846 51.9933 19.123 51.87 18.9998C51.7468 18.8765 51.6852 18.7269 51.6852 18.5508V1.06873C51.6852 0.87507 51.7468 0.725425 51.87 0.619793C51.9933 0.496555 52.1429 0.434937 52.319 0.434937H54.5108C54.7045 0.434937 54.8541 0.496555 54.9598 0.619793C55.083 0.725425 55.1446 0.87507 55.1446 1.06873V18.5508C55.1446 18.7269 55.083 18.8765 54.9598 18.9998C54.8541 19.123 54.7045 19.1846 54.5108 19.1846H52.319Z" fill="#565C65"/>
<path d="M63.6387 19.4487C61.6845 19.4487 60.1264 18.8853 58.9645 17.7586C57.8201 16.6142 57.2128 15.0122 57.1423 12.9523L57.1159 12.2921L57.1423 11.6319C57.2304 9.62492 57.8465 8.04924 58.9909 6.9049C60.1528 5.76055 61.7021 5.18838 63.6387 5.18838C65.7161 5.18838 67.3182 5.82217 68.445 7.08975C69.5893 8.35734 70.1615 10.0475 70.1615 12.1601V12.7147C70.1615 12.8907 70.0999 13.0404 69.9766 13.1636C69.8534 13.2868 69.6949 13.3484 69.5013 13.3484H60.7338V13.5597C60.769 14.528 61.0331 15.3467 61.5261 16.0157C62.0366 16.6671 62.732 16.9928 63.6123 16.9928C64.651 16.9928 65.4873 16.5878 66.1211 15.778C66.2795 15.5843 66.4027 15.4611 66.4908 15.4083C66.5964 15.3555 66.746 15.3291 66.9397 15.3291H69.2108C69.3692 15.3291 69.5013 15.3819 69.6069 15.4875C69.7301 15.5755 69.7918 15.69 69.7918 15.8308C69.7918 16.2533 69.5365 16.7551 69.0259 17.3361C68.533 17.8994 67.82 18.3924 66.8869 18.8149C65.9538 19.2374 64.8711 19.4487 63.6387 19.4487ZM66.57 11.1302V11.051C66.57 10.0122 66.3059 9.17599 65.7777 8.54219C65.2672 7.9084 64.5542 7.59151 63.6387 7.59151C62.7232 7.59151 62.0102 7.9084 61.4997 8.54219C60.9891 9.17599 60.7338 10.0122 60.7338 11.051V11.1302H66.57Z" fill="#565C65"/>
<path d="M77.9822 19.4487C76.0456 19.4487 74.4963 18.9117 73.3344 17.8378C72.19 16.7639 71.5826 15.2762 71.5122 13.3749L71.4858 12.3185L71.5122 11.2622C71.5826 9.36084 72.19 7.87319 73.3344 6.79927C74.4963 5.72534 76.0456 5.18838 77.9822 5.18838C79.3554 5.18838 80.5173 5.43485 81.468 5.9278C82.4363 6.42075 83.1493 7.02813 83.6071 7.74995C84.0824 8.45417 84.3377 9.12317 84.3729 9.75696C84.3905 9.93302 84.3289 10.0827 84.188 10.2059C84.0648 10.3291 83.9152 10.3908 83.7391 10.3908H81.4152C81.2392 10.3908 81.0983 10.3555 80.9927 10.2851C80.9047 10.1971 80.8166 10.0563 80.7286 9.86259C80.4645 9.17599 80.1124 8.68304 79.6723 8.38375C79.2498 8.08446 78.704 7.93481 78.035 7.93481C77.1371 7.93481 76.4329 8.2253 75.9223 8.80627C75.4118 9.36964 75.1389 10.2323 75.1037 11.3943L75.0773 12.3714L75.1037 13.2428C75.1741 15.5491 76.1512 16.7023 78.035 16.7023C78.7216 16.7023 79.2762 16.5526 79.6987 16.2533C80.1212 15.954 80.4645 15.4611 80.7286 14.7745C80.8166 14.5808 80.9047 14.4488 80.9927 14.3784C81.0983 14.2903 81.2392 14.2463 81.4152 14.2463H83.7391C83.9152 14.2463 84.0648 14.3079 84.188 14.4312C84.3289 14.5544 84.3905 14.7041 84.3729 14.8801C84.3377 15.4963 84.0912 16.1565 83.6335 16.8607C83.1757 17.5649 82.4715 18.1723 81.5208 18.6829C80.5702 19.1934 79.3906 19.4487 77.9822 19.4487Z" fill="#565C65"/>
<path d="M92.4086 19.1846C90.8065 19.1846 89.6005 18.7709 88.7907 17.9434C87.9984 17.0984 87.6023 15.866 87.6023 14.2463V8.25171H85.5161C85.34 8.25171 85.1904 8.19009 85.0671 8.06685C84.9439 7.92601 84.8823 7.76756 84.8823 7.59151V6.08625C84.8823 5.9102 84.9439 5.76055 85.0671 5.63731C85.1904 5.51408 85.34 5.45246 85.5161 5.45246H87.6023V1.06873C87.6023 0.87507 87.6639 0.725425 87.7872 0.619793C87.9104 0.496555 88.0601 0.434937 88.2361 0.434937H90.3752C90.5688 0.434937 90.7185 0.496555 90.8241 0.619793C90.9473 0.725425 91.0089 0.87507 91.0089 1.06873V5.45246H94.31C94.5036 5.45246 94.6533 5.51408 94.7589 5.63731C94.8821 5.74295 94.9437 5.89259 94.9437 6.08625V7.59151C94.9437 7.78516 94.8821 7.94361 94.7589 8.06685C94.6356 8.19009 94.486 8.25171 94.31 8.25171H91.0089V13.9822C91.0089 14.7393 91.141 15.3114 91.4051 15.6988C91.6691 16.0861 92.1093 16.2797 92.7255 16.2797H94.5476C94.7237 16.2797 94.8733 16.3414 94.9966 16.4646C95.1198 16.5878 95.1814 16.7375 95.1814 16.9135V18.5508C95.1814 18.7269 95.1198 18.8765 94.9966 18.9998C94.8909 19.123 94.7413 19.1846 94.5476 19.1846H92.4086Z" fill="#565C65"/>
<path d="M102.674 19.4487C100.614 19.4487 99.0205 18.9205 97.8938 17.8642C96.7671 16.7903 96.1597 15.3291 96.0716 13.4805L96.0452 12.3185L96.0716 11.1566C96.1597 9.32563 96.7759 7.87319 97.9202 6.79927C99.0646 5.72534 100.649 5.18838 102.674 5.18838C104.698 5.18838 106.283 5.72534 107.427 6.79927C108.571 7.87319 109.188 9.32563 109.276 11.1566C109.293 11.3679 109.302 11.7552 109.302 12.3185C109.302 12.8819 109.293 13.2692 109.276 13.4805C109.188 15.3291 108.58 16.7903 107.453 17.8642C106.327 18.9205 104.733 19.4487 102.674 19.4487ZM102.674 16.8343C103.607 16.8343 104.329 16.5438 104.839 15.9628C105.35 15.3643 105.631 14.4928 105.684 13.3484C105.702 13.1724 105.711 12.8291 105.711 12.3185C105.711 11.808 105.702 11.4647 105.684 11.2886C105.631 10.1443 105.35 9.28162 104.839 8.70064C104.329 8.10206 103.607 7.80277 102.674 7.80277C101.741 7.80277 101.019 8.10206 100.508 8.70064C99.9976 9.28162 99.716 10.1443 99.6631 11.2886L99.6367 12.3185L99.6631 13.3484C99.716 14.4928 99.9976 15.3643 100.508 15.9628C101.019 16.5438 101.741 16.8343 102.674 16.8343Z" fill="#565C65"/>
<path d="M111.938 19.1846C111.761 19.1846 111.612 19.123 111.489 18.9998C111.365 18.8765 111.304 18.7269 111.304 18.5508V6.11266C111.304 5.9366 111.365 5.78696 111.489 5.66372C111.612 5.52288 111.761 5.45246 111.938 5.45246H114.077C114.27 5.45246 114.429 5.51408 114.552 5.63731C114.675 5.76055 114.737 5.919 114.737 6.11266V7.19539C115.159 6.63201 115.687 6.20068 116.321 5.90139C116.973 5.6021 117.712 5.45246 118.54 5.45246H119.622C119.816 5.45246 119.966 5.51408 120.071 5.63731C120.194 5.74295 120.256 5.89259 120.256 6.08625V7.98763C120.256 8.16368 120.194 8.31332 120.071 8.43656C119.966 8.5598 119.816 8.62142 119.622 8.62142H117.562C116.735 8.62142 116.084 8.85909 115.608 9.33443C115.133 9.80978 114.895 10.4612 114.895 11.2886V18.5508C114.895 18.7269 114.834 18.8765 114.71 18.9998C114.587 19.123 114.429 19.1846 114.235 19.1846H111.938Z" fill="#565C65"/>
<path d="M125.173 19.4487C124.275 19.4487 123.447 19.2726 122.69 18.9205C121.951 18.5508 121.361 18.0579 120.921 17.4417C120.498 16.8255 120.287 16.1477 120.287 15.4083C120.287 14.2111 120.771 13.2428 121.74 12.5034C122.708 11.764 124.037 11.2622 125.727 10.9981L129.345 10.47V9.91541C129.345 9.14078 129.151 8.5598 128.764 8.17248C128.377 7.78516 127.752 7.59151 126.889 7.59151C126.308 7.59151 125.833 7.70594 125.463 7.93481C125.111 8.14607 124.829 8.35734 124.618 8.5686C124.407 8.79747 124.266 8.94712 124.196 9.01754C124.125 9.2288 123.993 9.33443 123.799 9.33443H121.766C121.608 9.33443 121.467 9.28162 121.343 9.17599C121.238 9.07035 121.185 8.92951 121.185 8.75346C121.203 8.31332 121.414 7.81157 121.819 7.2482C122.241 6.68483 122.884 6.20068 123.747 5.79576C124.609 5.39084 125.666 5.18838 126.916 5.18838C128.993 5.18838 130.507 5.65492 131.458 6.588C132.408 7.52108 132.884 8.74466 132.884 10.2587V18.5508C132.884 18.7269 132.822 18.8765 132.699 18.9998C132.593 19.123 132.444 19.1846 132.25 19.1846H130.111C129.935 19.1846 129.785 19.123 129.662 18.9998C129.539 18.8765 129.477 18.7269 129.477 18.5508V17.5209C129.09 18.0843 128.535 18.5508 127.813 18.9205C127.109 19.2726 126.229 19.4487 125.173 19.4487ZM126.071 16.9399C127.039 16.9399 127.831 16.623 128.447 15.9893C129.063 15.3555 129.372 14.4312 129.372 13.2164V12.6618L126.731 13.0844C125.71 13.2428 124.935 13.4981 124.407 13.8502C123.896 14.2023 123.641 14.6336 123.641 15.1442C123.641 15.7076 123.879 16.1477 124.354 16.4646C124.829 16.7815 125.402 16.9399 126.071 16.9399Z" fill="#565C65"/>
<path d="M136.008 19.1846C135.832 19.1846 135.682 19.123 135.559 18.9998C135.435 18.8765 135.374 18.7269 135.374 18.5508V1.06873C135.374 0.87507 135.435 0.725425 135.559 0.619793C135.682 0.496555 135.832 0.434937 136.008 0.434937H138.199C138.393 0.434937 138.543 0.496555 138.648 0.619793C138.772 0.725425 138.833 0.87507 138.833 1.06873V18.5508C138.833 18.7269 138.772 18.8765 138.648 18.9998C138.543 19.123 138.393 19.1846 138.199 19.1846H136.008Z" fill="#565C65"/>
<path fill-rule="evenodd" clip-rule="evenodd" d="M18.3062 1.26498C18.9267 0.624076 19.9327 0.624073 20.5532 1.26498C21.1737 1.90589 21.1737 2.94501 20.5532 3.58592L5.42806 19.2088H0.934082L18.3062 1.26498ZM18.46 19.2088L33.557 3.61492C34.1775 2.97401 34.1775 1.93489 33.557 1.29398C32.9365 0.653074 31.9305 0.653075 31.31 1.29398L13.966 19.2088H18.46ZM11.9627 19.2088L25.7764 4.95345C26.3968 4.31254 26.3968 3.27342 25.7764 2.63251C25.1559 1.9916 24.1499 1.9916 23.5294 2.63251L7.46663 19.2088H11.9627Z" fill="#390983"/>
</svg>
