<svg width="30" height="30" viewBox="0 0 30 30" fill="none" xmlns="http://www.w3.org/2000/svg">
<circle cx="15" cy="15" r="15" fill="white"/>
<path d="M11.025 21C9.90661 21 9 20.0934 9 18.975C9 17.8566 9.90661 16.95 11.025 16.95C12.1434 16.95 13.05 17.8566 13.05 18.975C13.05 20.0934 12.1434 21 11.025 21ZM17.6709 21H16.2224C15.9688 21 15.7562 20.8044 15.7397 20.5514C15.5198 17.1743 12.8185 14.4797 9.44858 14.2602C9.19558 14.2438 9 14.0311 9 13.7776V12.3291C9 12.0534 9.23068 11.8322 9.506 11.8471C14.1697 12.0991 17.9012 15.8353 18.1529 20.494C18.1678 20.7693 17.9466 21 17.6709 21ZM22.0174 21H20.5689C20.309 21 20.0975 20.794 20.0869 20.5343C19.8507 14.7743 15.2267 10.1494 9.46571 9.91319C9.20596 9.90252 9 9.69099 9 9.43107V7.9826C9 7.71032 9.2252 7.49053 9.49726 7.50031C16.5776 7.75449 22.2468 13.4568 22.4997 20.5027C22.5095 20.7748 22.2897 21 22.0174 21Z" fill="black"/>
</svg>
