<svg width="30" height="30" viewBox="0 0 30 30" fill="none" xmlns="http://www.w3.org/2000/svg">
<circle cx="15" cy="15" r="15" fill="white"/>
<path d="M21.5539 11.3338C21.5644 11.4936 21.5644 11.6536 21.5644 11.8135C21.5644 16.6903 18.1618 22.3096 11.9429 22.3096C10.027 22.3096 8.24715 21.7043 6.75 20.6536C7.02222 20.6878 7.28393 20.6992 7.56662 20.6992C9.1475 20.6992 10.6028 20.1168 11.7649 19.1231C10.2782 19.0888 9.03235 18.0267 8.60309 16.5647C8.8125 16.599 9.02188 16.6218 9.24176 16.6218C9.54536 16.6218 9.849 16.5761 10.1317 16.4962C8.58218 16.1535 7.42002 14.6688 7.42002 12.8756V12.83C7.8702 13.1041 8.39372 13.2754 8.94856 13.2982C8.03771 12.6358 7.44097 11.5051 7.44097 10.2259C7.44097 9.54061 7.60845 8.91244 7.90162 8.36421C9.56628 10.6028 12.0685 12.0647 14.8743 12.2246C14.822 11.9505 14.7906 11.665 14.7906 11.3795C14.7906 9.34644 16.2982 7.69037 18.1722 7.69037C19.1459 7.69037 20.0253 8.1358 20.643 8.85534C21.4073 8.69545 22.1402 8.38706 22.7893 7.96448C22.538 8.8211 22.0041 9.54064 21.3026 9.99746C21.9831 9.91755 22.6427 9.71192 23.2499 9.42642C22.7894 10.1574 22.2135 10.8083 21.5539 11.3338Z" fill="black"/>
</svg>
