<svg width="16" height="16" viewBox="0 0 16 16" fill="none" xmlns="http://www.w3.org/2000/svg">
<path d="M0.117245 14.6348L3.90034 10.8591C3.99414 10.7967 4.08793 10.7343 4.18173 10.7343H4.58818C3.61895 9.61092 2.99365 8.11312 2.99365 6.49049C2.99365 2.9332 5.93258 0 9.49682 0C13.0923 0 16 2.9332 16 6.49049C16 10.079 13.0923 12.981 9.49682 12.981C7.87103 12.981 6.40156 12.3881 5.24475 11.4208V11.8264C5.24475 11.92 5.21348 12.0137 5.15095 12.1073L1.36786 15.883C1.21153 16.039 0.961407 16.039 0.836346 15.883L0.117245 15.1653C-0.0390816 15.0405 -0.0390816 14.7908 0.117245 14.6348ZM9.49682 11.4832C12.2794 11.4832 14.4993 9.26767 14.4993 6.49049C14.4993 3.74451 12.2794 1.49781 9.49682 1.49781C6.74548 1.49781 4.49438 3.74451 4.49438 6.49049C4.49438 9.26767 6.74548 11.4832 9.49682 11.4832Z" fill="#4F4363"/>
</svg>
