<svg width="163" height="31" viewBox="0 0 163 31" fill="none" xmlns="http://www.w3.org/2000/svg">
<path fill-rule="evenodd" clip-rule="evenodd" d="M21.6226 1.42093C22.3949 0.623202 23.647 0.623199 24.4193 1.42092C25.1917 2.21865 25.1917 3.51201 24.4193 4.30974L5.59354 23.7551H0L21.6226 1.42093ZM21.814 23.7551L40.6049 4.34583C41.3772 3.54811 41.3772 2.25474 40.6049 1.45702C39.8326 0.659296 38.5804 0.659298 37.8081 1.45702L16.2205 23.7551H21.814ZM13.727 23.7551L30.9205 6.01187C31.6928 5.21414 31.6928 3.92078 30.9205 3.12305C30.1482 2.32533 28.8961 2.32533 28.1237 3.12305L8.1309 23.7551H13.727Z" fill="#140E1C"/>
<path d="M124.137 23.7914C123.897 23.7914 123.711 23.7259 123.58 23.5948C123.449 23.4419 123.384 23.2562 123.384 23.0378V1.60868C123.384 1.39023 123.449 1.21548 123.58 1.08442C123.711 0.931506 123.897 0.855052 124.137 0.855052H125.874C126.092 0.855052 126.267 0.931506 126.398 1.08442C126.551 1.21548 126.628 1.39023 126.628 1.60868V20.9408H137.506C137.746 20.9408 137.932 21.0172 138.063 21.1701C138.216 21.3012 138.292 21.4869 138.292 21.7272V23.0378C138.292 23.2562 138.216 23.4419 138.063 23.5948C137.932 23.7259 137.746 23.7914 137.506 23.7914H124.137Z" fill="#140E1C"/>
<path d="M141.028 23.7914C140.809 23.7914 140.623 23.7259 140.471 23.5948C140.339 23.4419 140.274 23.2562 140.274 23.0378V7.5066C140.274 7.28816 140.339 7.11341 140.471 6.98234C140.623 6.82943 140.809 6.75298 141.028 6.75298H142.6C142.819 6.75298 142.993 6.82943 143.125 6.98234C143.277 7.11341 143.354 7.28816 143.354 7.5066V23.0378C143.354 23.2562 143.277 23.4419 143.125 23.5948C142.993 23.7259 142.819 23.7914 142.6 23.7914H141.028ZM140.765 3.57465C140.547 3.57465 140.361 3.50912 140.208 3.37805C140.077 3.22514 140.012 3.03947 140.012 2.82103V1.05165C140.012 0.833208 140.077 0.647532 140.208 0.494623C140.361 0.341714 140.547 0.265259 140.765 0.265259H142.83C143.048 0.265259 143.234 0.341714 143.387 0.494623C143.54 0.647532 143.616 0.833208 143.616 1.05165V2.82103C143.616 3.03947 143.54 3.22514 143.387 3.37805C143.234 3.50912 143.048 3.57465 142.83 3.57465H140.765Z" fill="#140E1C"/>
<path d="M155.484 24.1191C154.173 24.1191 153.081 23.8897 152.207 23.431C151.333 22.9504 150.634 22.3606 150.11 21.6616V23.0378C150.11 23.2562 150.033 23.4419 149.881 23.5948C149.749 23.7259 149.575 23.7914 149.356 23.7914H147.849C147.631 23.7914 147.445 23.7259 147.292 23.5948C147.161 23.4419 147.095 23.2562 147.095 23.0378V1.28101C147.095 1.06257 147.161 0.887819 147.292 0.756754C147.445 0.603844 147.631 0.527389 147.849 0.527389H149.455C149.673 0.527389 149.848 0.603844 149.979 0.756754C150.11 0.887819 150.175 1.06257 150.175 1.28101V8.81725C150.722 8.14008 151.421 7.57213 152.272 7.11341C153.146 6.65468 154.217 6.42531 155.484 6.42531C156.707 6.42531 157.744 6.64376 158.596 7.08064C159.47 7.49568 160.18 8.07455 160.726 8.81725C161.294 9.55995 161.72 10.401 162.004 11.3403C162.288 12.2796 162.452 13.2625 162.496 14.2892C162.517 14.6387 162.528 14.9664 162.528 15.2722C162.528 15.578 162.517 15.9057 162.496 16.2552C162.452 17.3037 162.288 18.2976 162.004 19.2369C161.72 20.1762 161.294 21.0172 160.726 21.7599C160.18 22.4808 159.47 23.0596 158.596 23.4965C157.744 23.9116 156.707 24.1191 155.484 24.1191ZM154.795 21.465C155.931 21.465 156.816 21.2247 157.45 20.7442C158.105 20.2418 158.575 19.5973 158.859 18.811C159.142 18.0027 159.306 17.1399 159.35 16.2224C159.372 15.5889 159.372 14.9555 159.35 14.322C159.306 13.4045 159.142 12.5526 158.859 11.7662C158.575 10.958 158.105 10.3136 157.45 9.833C156.816 9.33059 155.931 9.07938 154.795 9.07938C153.769 9.07938 152.917 9.31967 152.24 9.80024C151.563 10.2808 151.049 10.8924 150.7 11.6351C150.372 12.3779 150.197 13.1315 150.175 13.896C150.154 14.2455 150.143 14.6715 150.143 15.1739C150.143 15.6545 150.154 16.0695 150.175 16.419C150.219 17.2273 150.394 18.0246 150.7 18.811C151.027 19.5755 151.519 20.209 152.174 20.7114C152.851 21.2138 153.725 21.465 154.795 21.465Z" fill="#140E1C"/>
<path d="M51.6864 23.7915C51.468 23.7915 51.2823 23.715 51.1294 23.5621C50.9765 23.4092 50.9 23.2235 50.9 23.0051V4.88535H44.8383C44.6198 4.88535 44.4341 4.80889 44.2812 4.65598C44.1283 4.50307 44.0519 4.3174 44.0519 4.09896V1.67425C44.0519 1.43397 44.1283 1.23737 44.2812 1.08446C44.4341 0.93155 44.6198 0.855095 44.8383 0.855095H61.549C61.7893 0.855095 61.9859 0.93155 62.1388 1.08446C62.2917 1.23737 62.3682 1.43397 62.3682 1.67425V4.09896C62.3682 4.3174 62.2917 4.50307 62.1388 4.65598C61.9859 4.80889 61.7893 4.88535 61.549 4.88535H55.5201V23.0051C55.5201 23.2235 55.4436 23.4092 55.2907 23.5621C55.1378 23.715 54.9412 23.7915 54.7009 23.7915H51.6864Z" fill="#140E1C"/>
<path d="M65.2388 23.7915C65.0204 23.7915 64.8347 23.715 64.6818 23.5621C64.5289 23.4092 64.4524 23.2235 64.4524 23.0051V7.53941C64.4524 7.32097 64.5289 7.13529 64.6818 6.98239C64.8347 6.82948 65.0204 6.75302 65.2388 6.75302H67.9584C68.1987 6.75302 68.3844 6.82948 68.5155 6.98239C68.6684 7.13529 68.7448 7.32097 68.7448 7.53941V23.0051C68.7448 23.2235 68.6684 23.4092 68.5155 23.5621C68.3844 23.715 68.1987 23.7915 67.9584 23.7915H65.2388ZM65.1078 3.93512C64.8893 3.93512 64.7036 3.85867 64.5507 3.70576C64.3978 3.55285 64.3214 3.36718 64.3214 3.14873V0.789564C64.3214 0.571122 64.3978 0.385446 64.5507 0.232537C64.7036 0.0796281 64.8893 0.00317383 65.1078 0.00317383H68.0895C68.3298 0.00317383 68.5264 0.0796281 68.6793 0.232537C68.8322 0.385446 68.9087 0.571122 68.9087 0.789564V3.14873C68.9087 3.36718 68.8322 3.55285 68.6793 3.70576C68.5264 3.85867 68.3298 3.93512 68.0895 3.93512H65.1078Z" fill="#140E1C"/>
<path d="M80.1367 31.0001C78.5421 31.0001 77.2315 30.7925 76.2048 30.3775C75.1781 29.9625 74.3699 29.46 73.7801 28.8702C73.1903 28.2805 72.7643 27.6907 72.5022 27.1009C72.2619 26.5329 72.1308 26.0851 72.109 25.7575C72.0872 25.539 72.1527 25.3424 72.3056 25.1677C72.4803 25.0147 72.6769 24.9383 72.8954 24.9383H75.746C75.9645 24.9383 76.1392 24.982 76.2703 25.0694C76.4014 25.1786 76.5106 25.3643 76.598 25.6264C76.729 25.9104 76.9038 26.2162 77.1222 26.5438C77.3407 26.8715 77.6683 27.1446 78.1052 27.363C78.5639 27.6033 79.1865 27.7234 79.9729 27.7234C80.803 27.7234 81.502 27.6033 82.0699 27.363C82.6379 27.1227 83.0638 26.7186 83.3478 26.1506C83.6536 25.5827 83.8065 24.7963 83.8065 23.7915V21.5634C83.2823 22.1969 82.6051 22.7102 81.775 23.1034C80.9668 23.4966 79.962 23.6932 78.7605 23.6932C77.6028 23.6932 76.587 23.5075 75.7133 23.1362C74.8614 22.743 74.1514 22.2078 73.5835 21.5306C73.0155 20.8316 72.5786 20.0124 72.2728 19.0731C71.9889 18.1338 71.825 17.0962 71.7813 15.9603C71.7595 15.3705 71.7595 14.7808 71.7813 14.191C71.825 13.0988 71.9889 12.083 72.2728 11.1437C72.5786 10.2044 73.0155 9.38524 73.5835 8.68623C74.1514 7.96537 74.8614 7.40835 75.7133 7.01515C76.587 6.62196 77.6028 6.42536 78.7605 6.42536C80.0057 6.42536 81.0542 6.66565 81.9061 7.14622C82.758 7.60494 83.457 8.18381 84.0031 8.88283V7.57218C84.0031 7.33189 84.0796 7.13529 84.2325 6.98239C84.3854 6.82948 84.5711 6.75302 84.7895 6.75302H87.4436C87.662 6.75302 87.8477 6.82948 88.0006 6.98239C88.1535 7.13529 88.23 7.33189 88.23 7.57218L88.2628 23.3655C88.2628 24.9383 87.9679 26.2926 87.3781 27.4285C86.7883 28.5644 85.8927 29.4382 84.6912 30.0498C83.5117 30.6833 81.9935 31.0001 80.1367 31.0001ZM79.9729 20.22C80.8685 20.22 81.5894 20.0234 82.1355 19.6302C82.6816 19.237 83.0857 18.7236 83.3478 18.0901C83.6099 17.4567 83.7629 16.8123 83.8065 16.1569C83.8284 15.873 83.8393 15.5125 83.8393 15.0757C83.8393 14.6388 83.8284 14.2893 83.8065 14.0271C83.7629 13.35 83.6099 12.7056 83.3478 12.0939C83.0857 11.4604 82.6816 10.9471 82.1355 10.5539C81.5894 10.1389 80.8685 9.93135 79.9729 9.93135C79.0773 9.93135 78.3564 10.1389 77.8103 10.5539C77.2642 10.9471 76.871 11.4714 76.6307 12.1267C76.4123 12.782 76.2812 13.5029 76.2375 14.2893C76.1939 14.8135 76.1939 15.3487 76.2375 15.8948C76.2812 16.6594 76.4123 17.3802 76.6307 18.0574C76.871 18.7127 77.2642 19.237 77.8103 19.6302C78.3564 20.0234 79.0773 20.22 79.9729 20.22Z" fill="#140E1C"/>
<path d="M99.3119 24.1191C96.8872 24.1191 94.9649 23.4201 93.545 22.0221C92.1252 20.6241 91.3606 18.6362 91.2514 16.0586C91.2295 15.8402 91.2186 15.5671 91.2186 15.2395C91.2186 14.89 91.2295 14.6169 91.2514 14.4203C91.3388 12.7602 91.7101 11.3403 92.3655 10.1607C93.0426 8.95928 93.971 8.04183 95.1506 7.40835C96.3302 6.75302 97.7173 6.42536 99.3119 6.42536C101.081 6.42536 102.567 6.79671 103.768 7.53941C104.97 8.26027 105.876 9.27602 106.488 10.5867C107.099 11.8755 107.405 13.3718 107.405 15.0757V15.7637C107.405 15.9822 107.329 16.1679 107.176 16.3208C107.023 16.4737 106.826 16.5501 106.586 16.5501H95.7076C95.7076 16.5501 95.7076 16.5829 95.7076 16.6484C95.7076 16.714 95.7076 16.7686 95.7076 16.8123C95.7295 17.5768 95.8714 18.2867 96.1336 18.9421C96.4175 19.5756 96.8217 20.0889 97.3459 20.4821C97.892 20.8753 98.5364 21.0719 99.2791 21.0719C99.8908 21.0719 100.404 20.9845 100.819 20.8097C101.234 20.6131 101.573 20.3947 101.835 20.1544C102.097 19.9141 102.283 19.7175 102.392 19.5646C102.589 19.3025 102.741 19.1496 102.851 19.1059C102.982 19.0404 103.167 19.0076 103.408 19.0076H106.226C106.444 19.0076 106.619 19.0731 106.75 19.2042C106.903 19.3353 106.968 19.4991 106.946 19.6957C106.925 20.0452 106.739 20.4712 106.389 20.9736C106.062 21.476 105.581 21.9675 104.948 22.4481C104.314 22.9286 103.517 23.3327 102.556 23.6604C101.616 23.9662 100.535 24.1191 99.3119 24.1191ZM95.7076 13.7978H102.949V13.6995C102.949 12.8475 102.807 12.1048 102.523 11.4714C102.239 10.816 101.824 10.3136 101.278 9.96411C100.732 9.59276 100.076 9.40709 99.3119 9.40709C98.5473 9.40709 97.892 9.59276 97.3459 9.96411C96.7998 10.3136 96.3848 10.816 96.1008 11.4714C95.8387 12.1048 95.7076 12.8475 95.7076 13.6995V13.7978Z" fill="#140E1C"/>
<path d="M111.014 23.7915C110.796 23.7915 110.61 23.715 110.457 23.5621C110.304 23.4092 110.228 23.2235 110.228 23.0051V7.57218C110.228 7.33189 110.304 7.13529 110.457 6.98239C110.61 6.82948 110.796 6.75302 111.014 6.75302H113.668C113.887 6.75302 114.072 6.82948 114.225 6.98239C114.4 7.13529 114.488 7.33189 114.488 7.57218V8.91559C114.99 8.21658 115.634 7.6814 116.421 7.31005C117.229 6.9387 118.157 6.75302 119.206 6.75302H120.549C120.79 6.75302 120.975 6.82948 121.106 6.98239C121.259 7.13529 121.336 7.32097 121.336 7.53941V9.89858C121.336 10.117 121.259 10.3027 121.106 10.4556C120.975 10.6085 120.79 10.685 120.549 10.685H117.994C116.945 10.685 116.126 10.9799 115.536 11.5697C114.968 12.1376 114.684 12.9458 114.684 13.9944V23.0051C114.684 23.2235 114.608 23.4092 114.455 23.5621C114.302 23.715 114.105 23.7915 113.865 23.7915H111.014Z" fill="#140E1C"/>
</svg>
